<?xml version="1.0" standalone="yes"?>
<svg xmlns="http://www.w3.org/2000/svg" width="2360" height="1640">
<path style="fill:#f7eb01; stroke:none;" d="M0 0L0 371L5 371L2 376C13.4153 381.493 28.1399 375.179 39 370.799C68.8319 358.77 95.0723 339.372 118 317.015C204.932 232.245 261.627 118.747 284 0L0 0z"/>
<path style="fill:#ffffff; stroke:none;" d="M284 0C281.143 36.1552 267.773 73.5681 254.4 107C224.331 182.17 181.451 253.549 124 311C92.5505 342.449 47.2384 379.87 0 380L0 926L1 926C27.0552 881.36 52.4325 838.715 92 804.289C108.856 789.624 128.431 775.888 149 767C179.285 753.914 209.887 745.436 243 744.039C338.959 739.992 432.146 797.169 503 856.081C599.006 935.907 677.545 1037.16 746.003 1141C804.564 1229.83 859.443 1321.42 908.258 1416C933.496 1464.9 958.638 1513.78 983.247 1563C995.414 1587.33 1012.48 1613.89 1020 1640L1643 1640C1643 1626.08 1641.72 1611.51 1645.72 1598C1665.47 1531.36 1732.32 1501.89 1795 1489.8C1875.61 1474.25 1955.38 1489.43 2036 1492.96C2098.72 1495.71 2159.84 1490.1 2219 1468.05C2256.28 1454.15 2289.93 1432.29 2325 1413.78C2333.74 1409.17 2342.51 1404.69 2351 1399.6C2354.21 1397.68 2358.61 1395.83 2359.68 1391.91C2361.93 1383.69 2360 1372.51 2360 1364L2360 1303L2360 1108L2360 1035C2360 1026.13 2362.83 1011.49 2359.4 1003.29C2356.71 996.866 2347.87 990.876 2343 986C2331.9 974.887 2321.48 962.931 2311.27 951C2274.39 907.914 2239.23 863.429 2204 819C2109.29 699.555 2026.93 567.367 1913 464.831C1865.98 422.513 1816.87 382.881 1759 356.309C1725.7 341.019 1689.6 329.658 1653 326.17C1608.13 321.894 1562.77 326.091 1518 321.83C1495.18 319.659 1473.18 313.417 1451 307.873C1403.49 295.997 1358.59 281.107 1314 260.691C1235.71 224.846 1165.71 167.462 1112 100C1094.22 77.6595 1080.49 51.4706 1067.75 26C1064.72 19.9392 1059.14 1.39795 1051.9 0.148193C1026.56 -4.22205 996.751 0 971 0L804 0L284 0z"/>
<path style="fill:#f7eb01; stroke:none;" d="M1055 0C1069.59 35.0385 1089.75 72.3308 1113.45 102C1128.4 120.715 1146.1 137.095 1163 154C1191.98 182.981 1223.75 211.285 1259 232.55C1331.55 276.318 1417.64 304.876 1501 318.919C1546.28 326.547 1593.36 319.826 1639 324.17C1706.15 330.561 1769.71 355.083 1825 393.72C1984.03 504.84 2088.07 670.419 2205.58 821C2237.21 861.543 2269.39 901.717 2302.58 941C2319.46 960.988 2337.58 986.87 2359 1002L2359 7L2319 0.0894775L2165 0L1859 0L1055 0z"/>
<path style="fill:#f9f25a; stroke:none;" d="M2322 0L2322 1L2325 1L2322 0z"/>
<path style="fill:#ffffff; stroke:none;" d="M2325 0L2325 1L2359 7L2359 998L2360 998L2360 0L2325 0z"/>
<path style="fill:#f9f25a; stroke:none;" d="M1055 1L1056 2L1055 1M2328.67 1.33337L2329.33 1.66663L2328.67 1.33337M283 2L283 5L284 5L283 2M2333 2L2333 3L2336 3L2333 2M1056 3L1057 4L1056 3M2338 3L2338 4L2341 4L2338 3M2344.67 4.33337L2345.33 4.66663L2344.67 4.33337M1057 5L1058 6L1057 5M2349.67 5.33337L2350.33 5.66663L2349.67 5.33337M2354.67 6.33337L2355.33 6.66663L2354.67 6.33337M1058 7L1059 8L1058 7M282 8L282 11L283 11L282 8M1059 9L1060 10L1059 9M1060 11L1061 12L1060 11M1061 13L1062 14L1061 13M281.333 14.6666L281.667 15.3334L281.333 14.6666M1062 15L1063 16L1062 15M1063 17L1064 18L1063 17M280 19L280 22L281 22L280 19M1064 19L1065 20L1064 19M1065 21L1066 22L1065 21M1066 23L1067 24L1066 23M279 24L279 27L280 27L279 24M1067 25L1068 26L1067 25M1068 27L1069 28L1068 27M278 28L278 31L279 31L278 28M1069 29L1070 30L1069 29M1070 31L1071 32L1070 31M277.333 33.6666L277.667 34.3334L277.333 33.6666M1071 33L1072 34L1071 33M1072 35L1073 36L1072 35M276 37L276 40L277 40L276 37M1073 37L1074 38L1073 37M1074 38L1075 39L1074 38M1075 40L1076 41L1075 40M275.333 41.6666L275.667 42.3334L275.333 41.6666M1076 42L1077 43L1076 42M1077 44L1078 45L1077 44M274.333 45.6666L274.667 46.3334L274.333 45.6666M1078 46L1079 47L1078 46M1079 48L1080 49L1079 48M273.333 49.6666L273.667 50.3334L273.333 49.6666M1080.33 49.6666L1080.67 50.3334L1080.33 49.6666M1081 51L1082 52L1081 51M272 53L273 54L272 53M1082 53L1083 54L1082 53M1083 55L1084 56L1083 55M271.333 56.6666L271.667 57.3334L271.333 56.6666M1084.33 56.6666L1084.67 57.3334L1084.33 56.6666M1085 58L1086 59L1085 58M270 60L271 61L270 60M1086 60L1087 61L1086 60M1087 62L1088 63L1087 62M269.333 63.6666L269.667 64.3334L269.333 63.6666M1088 64L1089 65L1088 64M268.333 66.6666L268.667 67.3334L268.333 66.6666M1089 66L1090 67L1089 66M1090 67L1091 68L1090 67M1091 69L1092 70L1091 69M267 70L268 71L267 70M1092 71L1093 72L1092 71M1093 72L1094 73L1093 72M266 73L267 74L266 73M1094 74L1095 75L1094 74M1095.33 75.6666L1095.67 76.3334L1095.33 75.6666M265 76L266 77L265 76M1096 77L1097 78L1096 77M264 79L265 80L264 79M1097 79L1098 80L1097 79M1098.33 80.6666L1098.67 81.3334L1098.33 80.6666M263 82L264 83L263 82M1099 82L1100 83L1099 82M1100 84L1101 85L1100 84M262 85L263 86L262 85M1101 85L1102 86L1101 85M1102 87L1103 88L1102 87M261 88L262 89L261 88M1103 88L1104 89L1103 88M1104.33 89.6666L1104.67 90.3334L1104.33 89.6666M260.333 90.6666L260.667 91.3334L260.333 90.6666M1105 91L1106 92L1105 91M1106 92L1107 93L1106 92M259 93L260 94L259 93M1107 94L1108 95L1107 94M1108 95L1109 96L1108 95M258 96L259 97L258 96M1109 96L1110 97L1109 96M1110 98L1111 99L1110 98M257 99L258 100L257 99M1111 99L1112 100L1111 99M1112 100L1113 101L1112 100M256 101L257 102L256 101M1114 103L1115 104L1114 103M255 104L256 105L255 104M1115 104L1116 105L1115 104M1116 105L1117 106L1116 105M254 106L255 107L254 106M1117 106L1118 107L1117 106M253 109L254 110L253 109M1119 109L1120 110L1119 109M1120 110L1121 111L1120 110M252 111L253 112L252 111M1121 111L1122 112L1121 111M1122 112L1123 113L1122 112M1123 113L1124 114L1123 113M251 114L252 115L251 114M1124 114L1125 115L1124 114M1125 115L1126 116L1125 115M250 116L251 117L250 116M1127 118L1128 119L1127 118M249 119L250 120L249 119M1128 119L1129 120L1128 119M1129 120L1130 121L1129 120M248 121L249 122L248 121M1130 121L1131 122L1130 121M1131 122L1132 123L1131 122M247 123L248 124L247 123M1132 123L1133 124L1132 123M1133 124L1134 125L1133 124M1134 125L1135 126L1134 125M246 126L247 127L246 126M1135 126L1136 127L1135 126M1136 127L1137 128L1136 127M245 128L246 129L245 128M1137 128L1138 129L1137 128M1138 129L1139 130L1138 129M244 130L245 131L244 130M1139 130L1140 131L1139 130M1140 131L1141 132L1140 131M243.333 132.667L243.667 133.333L243.333 132.667M1141 132L1142 133L1141 132M1142 133L1143 134L1142 133M1143 134L1144 135L1143 134M242 135L243 136L242 135M1144 135L1145 136L1144 135M241 137L242 138L241 137M1146 137L1147 138L1146 137M1147 138L1148 139L1147 138M240 139L241 140L240 139M1148 139L1149 140L1148 139M1149 140L1150 141L1149 140M239 141L240 142L239 141M1150 141L1151 142L1150 141M1151 142L1152 143L1151 142M238 143L239 144L238 143M1152 143L1153 144L1152 143M1153 144L1154 145L1153 144M237.333 145.667L237.667 146.333L237.333 145.667M1154 145L1155 146L1154 145M1155 146L1156 147L1155 146M1156 147L1157 148L1156 147M236 148L237 149L236 148M1157 148L1158 149L1157 148M1158 149L1159 150L1158 149M235 150L236 151L235 150M1159 150L1160 151L1159 150M1160 151L1161 152L1160 151M234 152L235 153L234 152M1161 152L1162 153L1161 152M1162 153L1163 154L1162 153M233 154L234 155L233 154M1163 154L1164 155L1163 154M1164 155L1165 156L1164 155M232 156L233 157L232 156M1165 156L1166 157L1165 156M1166 157L1167 158L1166 157M231 158L232 159L231 158M1167 158L1168 159L1167 158M1168 159L1169 160L1168 159M230 160L231 161L230 160M1169 160L1170 161L1169 160M1170 161L1171 162L1170 161M229 162L230 163L229 162M1171 162L1172 163L1171 162M1172 163L1173 164L1172 163M228 164L229 165L228 164M1173 164L1174 165L1173 164M1174 165L1175 166L1174 165M227 166L228 167L227 166M1175 166L1176 167L1175 166M1176 167L1177 168L1176 167M226 168L227 169L226 168M1177 168L1178 169L1177 168M225 170L226 171L225 170M224 171L225 172L224 171M1182 172L1183 173L1182 172M223 173L224 174L223 173M1183 173L1184 174L1183 173M1184 174L1185 175L1184 174M222 175L223 176L222 175M1185 175L1186 176L1185 175M1186 176L1187 177L1186 176M221 177L222 178L221 177M1187 177L1188 178L1187 177M1188 178L1189 179L1188 178M220 179L221 180L220 179M1189 179L1190 180L1189 179M1190 180L1191 181L1190 180M219 181L220 182L219 181M1193 182L1194 183L1193 182M218 183L219 184L218 183M1194 183L1195 184L1194 183M217 184L218 185L217 184M1195 184L1196 185L1195 184M1196 185L1197 186L1196 185M216 186L217 187L216 186M1197 186L1198 187L1197 186M1198 187L1199 188L1198 187M215 188L216 189L215 188M1199 188L1200 189L1199 188M1201 189L1202 190L1201 189M214 190L215 191L214 190M1202 190L1203 191L1202 190M1203 191L1204 192L1203 191M1204 192L1205 193L1204 192M212 193L213 194L212 193M1205 193L1206 194L1205 193M211 195L212 196L211 195M1208 195L1209 196L1208 195M1209 196L1210 197L1209 196M210 197L211 198L210 197M1210 197L1211 198L1210 197M209 198L210 199L209 198M1211 198L1212 199L1211 198M1213 199L1214 200L1213 199M208 200L209 201L208 200M1214 200L1215 201L1214 200M1215 201L1216 202L1215 201M207 202L208 203L207 202M1217 202L1218 203L1217 202M206 203L207 204L206 203M1218 203L1219 204L1218 203M1219 204L1220 205L1219 204M205 205L206 206L205 205M1220.67 205.333L1221.33 205.667L1220.67 205.333M1222 206L1223 207L1222 206M204 207L205 208L204 207M1223 207L1224 208L1223 207M203 208L204 209L203 208M1225 208L1226 209L1225 208M1226 209L1227 210L1226 209M202 210L203 211L202 210M1227 210L1228 211L1227 210M1228 211L1229 212L1228 211M201 212L202 213L201 212M1230 212L1231 213L1230 212M200 213L201 214L200 213M1231 213L1232 214L1231 213M1232 214L1233 215L1232 214M199 215L200 216L199 215M1234 215L1235 216L1234 215M1235 216L1236 217L1235 216M1237 217L1238 218L1237 217M197 218L198 219L197 218M1238 218L1239 219L1238 218M1239 219L1240 220L1239 219M196 220L197 221L196 220M1241 220L1242 221L1241 220M195 221L196 222L195 221M1242 221L1243 222L1242 221M1244 222L1245 223L1244 222M194 223L195 224L194 223M1245 223L1246 224L1245 223M193 224L194 225L193 224M1246 224L1247 225L1246 224M1248 225L1249 226L1248 225M192 226L193 227L192 226M1249 226L1250 227L1249 226M191 227L192 228L191 227M1251 227L1252 228L1251 227M1252 228L1253 229L1252 228M190 229L191 230L190 229M1254 229L1255 230L1254 229M189 230L190 231L189 230M1255 230L1256 231L1255 230M1257 231L1258 232L1257 231M188 232L189 233L188 232M1258 232L1259 233L1258 232M187 233L188 234L187 233M1260 233L1261 234L1260 233M1262 234L1263 235L1262 234M186 235L187 236L186 235M1263.67 235.333L1264.33 235.667L1263.67 235.333M185 236L186 237L185 236M1265 236L1266 237L1265 236M1267 237L1268 238L1267 237M184 238L185 239L184 238M1269 238L1270 239L1269 238M183 239L184 240L183 239M1270.67 239.333L1271.33 239.667L1270.67 239.333M1272 240L1273 241L1272 240M1274 241L1275 242L1274 241M181 242L182 243L181 242M1276 242L1277 243L1276 242M180 243L181 244L180 243M1278 243L1279 244L1278 243M1280 244L1281 245L1280 244M179 245L180 246L179 245M1282 245L1283 246L1282 245M178 246L179 247L178 246M1283.67 246.333L1284.33 246.667L1283.67 246.333M1285.67 247.333L1286.33 247.667L1285.67 247.333M1287 248L1288 249L1287 248M176 249L177 250L176 249M1289 249L1290 250L1289 249M175 250L176 251L175 250M1291.67 250.333L1292.33 250.667L1291.67 250.333M1293.67 251.333L1294.33 251.667L1293.67 251.333M174 252L175 253L174 252M1296 252L1297 253L1296 252M173 253L174 254L173 253M1298 253L1299 254L1298 253M1300 254L1301 255L1300 254M1302.67 255.333L1303.33 255.667L1302.67 255.333M171 256L172 257L171 256M1304.67 256.333L1305.33 256.667L1304.67 256.333M170 257L171 258L170 257M1307 257L1308 258L1307 257M1309 258L1310 259L1309 258M1311 259L1312 260L1311 259M168 260L169 261L168 260M1313.67 260.333L1314.33 260.667L1313.67 260.333M167 261L168 262L167 261M1315.67 261.333L1316.33 261.667L1315.67 261.333M166 262L167 263L166 262M1318 262L1319 263L1318 262M1320 263L1321 264L1320 263M165 264L166 265L165 264M1322.67 264.333L1323.33 264.667L1322.67 264.333M164 265L165 266L164 265M1324.67 265.333L1325.33 265.667L1324.67 265.333M163 266L164 267L163 266M1327 266L1328 267L1327 266M1329 267L1330 268L1329 267M1331 268L1332 269L1331 268M161 269L162 270L161 269M1334 269L1335 270L1334 269M160 270L161 271L160 270M1336 270L1337 271L1336 270M159 271L160 272L159 271M1338 271L1339 272L1338 271M1340.67 272.333L1341.33 272.667L1340.67 272.333M1343 273L1344 274L1343 273M157 274L158 275L157 274M1345.67 274.333L1346.33 274.667L1345.67 274.333M156 275L157 276L156 275M1348 275L1349 276L1348 275M155 276L156 277L155 276M1350 276L1351 277L1350 276M1352.67 277.333L1353.33 277.667L1352.67 277.333M1355 278L1356 279L1355 278M1357 279L1358 280L1357 279M152 280L153 281L152 280M1359.67 280.333L1360.33 280.667L1359.67 280.333M151 281L152 282L151 281M1362.67 281.333L1363.33 281.667L1362.67 281.333M150 282L151 283L150 282M1365 282L1366 283L1365 282M149 283L150 284L149 283M1367.67 283.333L1368.33 283.667L1367.67 283.333M1370.67 284.333L1371.33 284.667L1370.67 284.333M1373 285L1374 286L1373 285M147 286L148 287L147 286M1375.67 286.333L1376.33 286.667L1375.67 286.333M146 287L147 288L146 287M1378.67 287.333L1379.33 287.667L1378.67 287.333M145 288L146 289L145 288M1381 288L1382 289L1381 288M144 289L145 290L144 289M1384 289L1385 290L1384 289M1386.67 290.333L1387.33 290.667L1386.67 290.333M1390 291L1391 292L1390 291M1393.67 292.333L1394.33 292.667L1393.67 292.333M1396.67 293.333L1397.33 293.667L1396.67 293.333M1400 294L1401 295L1400 294M139 295L140 296L139 295M1403.67 295.333L1404.33 295.667L1403.67 295.333M138 296L139 297L138 296M1406.67 296.333L1407.33 296.667L1406.67 296.333M137 297L138 298L137 297M1410.67 297.333L1411.33 297.667L1410.67 297.333M136 298L137 299L136 298M1413 298L1413 299L1416 299L1413 298M135 299L136 300L135 299M1417 299L1417 300L1420 300L1417 299M134 300L135 301L134 300M1421 300L1421 301L1424 301L1421 300M133 301L134 302L133 301M1425 301L1425 302L1428 302L1425 301M132 302L133 303L132 302M1429 302L1429 303L1432 303L1429 302M131 303L132 304L131 303M1433.67 303.333L1434.33 303.667L1433.67 303.333M130 304L131 305L130 304M1437.67 304.333L1438.33 304.667L1437.67 304.333M1441.67 305.333L1442.33 305.667L1441.67 305.333M1445.67 306.333L1446.33 306.667L1445.67 306.333M1449.67 307.333L1450.33 307.667L1449.67 307.333M1453.67 308.333L1454.33 308.667L1453.67 308.333M1457.67 309.333L1458.33 309.667L1457.67 309.333M1461.67 310.333L1462.33 310.667L1461.67 310.333M1465.67 311.333L1466.33 311.667L1465.67 311.333M122 312L123 313L122 312M1469.67 312.333L1470.33 312.667L1469.67 312.333M121 313L122 314L121 313M1473.67 313.333L1474.33 313.667L1473.67 313.333M120 314L121 315L120 314M1477.67 314.333L1478.33 314.667L1477.67 314.333M119 315L120 316L119 315M1481 315L1481 316L1484 316L1481 315M118 316L119 317L118 316M1485 316L1485 317L1488 317L1485 316M117 317L118 318L117 317M1490 317L1490 318L1494 318L1490 317M116 318L117 319L116 318M1494 318L1494 319L1499 319L1494 318M115 319L116 320L115 319M1499 319L1499 320L1505 320L1499 319M114 320L115 321L114 320M1506 320L1506 321L1514 321L1506 320M113 321L114 322L113 321M1515 321L1515 322L1532 322L1515 321M112 322L113 323L112 322M1538 322L1538 323L1604 323L1583 322L1538 322M111 323L112 324L111 323M1608 323L1608 324L1623 324L1608 323M1629 324L1629 325L1642 325L1629 324M1642 325L1642 326L1652 326L1642 325M107 326L108 327L107 326M1655 326L1655 327L1660 327L1655 326M106 327L107 328L106 327M1663 327L1663 328L1666 328L1663 327M105 328L106 329L105 328M1669 328L1669 329L1673 329L1669 328M104 329L105 330L104 329M1675 329L1675 330L1678 330L1675 329M103 330L104 331L103 330M1680 330L1680 331L1683 331L1680 330M1685.67 331.333L1686.33 331.667L1685.67 331.333M100 332L101 333L100 332M1690 332L1690 333L1693 333L1690 332M99 333L100 334L99 333M1695.67 333.333L1696.33 333.667L1695.67 333.333M98 334L99 335L98 334M1698.67 334.333L1699.33 334.667L1698.67 334.333M97 335L98 336L97 335M1701 335L1701 336L1704 336L1701 335M1705.67 336.333L1706.33 336.667L1705.67 336.333M94 337L95 338L94 337M1709.67 337.333L1710.33 337.667L1709.67 337.333M93 338L94 339L93 338M1712.67 338.333L1713.33 338.667L1712.67 338.333M92 339L93 340L92 339M1715.67 339.333L1716.33 339.667L1715.67 339.333M1718.67 340.333L1719.33 340.667L1718.67 340.333M89 341L90 342L89 341M1721.67 341.333L1722.33 341.667L1721.67 341.333M88 342L89 343L88 342M1724.67 342.333L1725.33 342.667L1724.67 342.333M1727 343L1728 344L1727 343M85 344L86 345L85 344M1730 344L1731 345L1730 344M84 345L85 346L84 345M1733 345L1734 346L1733 345M82 346L83 347L82 346M1735.67 346.333L1736.33 346.667L1735.67 346.333M81 347L82 348L81 347M1738 347L1739 348L1738 347M79 348L80 349L79 348M1740.67 348.333L1741.33 348.667L1740.67 348.333M78 349L79 350L78 349M1743 349L1744 350L1743 349M1745.67 350.333L1746.33 350.667L1745.67 350.333M75 351L76 352L75 351M1748 351L1749 352L1748 351M1750 352L1751 353L1750 352M72 353L73 354L72 353M1752 353L1753 354L1752 353M1754.67 354.333L1755.33 354.667L1754.67 354.333M69 355L70 356L69 355M1757 355L1758 356L1757 355M67 356L68 357L67 356M1759 356L1760 357L1759 356M1761.67 357.333L1762.33 357.667L1761.67 357.333M64 358L65 359L64 358M1763 358L1764 359L1763 358M62 359L63 360L62 359M1765 359L1766 360L1765 359M60 360L61 361L60 360M1767 360L1768 361L1767 360M58 361L59 362L58 361M1769.67 361.333L1770.33 361.667L1769.67 361.333M56.6667 362.333L57.3333 362.667L56.6667 362.333M1771.67 362.333L1772.33 362.667L1771.67 362.333M55 363L56 364L55 363M1773.67 363.333L1774.33 363.667L1773.67 363.333M53 364L54 365L53 364M1775.67 364.333L1776.33 364.667L1775.67 364.333M51 365L52 366L51 365M1777.67 365.333L1778.33 365.667L1777.67 365.333M49 366L50 367L49 366M1779 366L1780 367L1779 366M46 367L47 368L46 367M1781.67 367.333L1782.33 367.667L1781.67 367.333M44 368L45 369L44 368M1783.67 368.333L1784.33 368.667L1783.67 368.333M42 369L43 370L42 369M1785 369L1786 370L1785 369M39.6667 370.333L40.3333 370.667L39.6667 370.333M1787 370L1788 371L1787 370M0 371L0 380L15 379L15 378L2 376L5 371L0 371M37 371L38 372L37 371M1789 371L1790 372L1789 371M34.6667 372.333L35.3333 372.667L34.6667 372.333M1791 372L1792 373L1791 372M32 373L33 374L32 373M1792 373L1793 374L1792 373M29 374L30 375L29 374M1794 374L1795 375L1794 374M25.6667 375.333L26.3333 375.667L25.6667 375.333M1796 375L1797 376L1796 375M22 376L23 377L22 376M1798 376L1799 377L1798 376M17.6667 377.333L18.3333 377.667L17.6667 377.333M1799 377L1800 378L1799 377M1801 378L1802 379L1801 378M1803 379L1804 380L1803 379M1804 380L1805 381L1804 380M1806 381L1807 382L1806 381M1807 382L1808 383L1807 382M1809 383L1810 384L1809 383M1811 384L1812 385L1811 384M1812 385L1813 386L1812 385M1814 386L1815 387L1814 386M1815 387L1816 388L1815 387M1817 388L1818 389L1817 388M1818 389L1819 390L1818 389M1820 390L1821 391L1820 390M1821 391L1822 392L1821 391M1823 392L1824 393L1823 392M1824 393L1825 394L1824 393M1826 394L1827 395L1826 394M1827 395L1828 396L1827 395M1830 397L1831 398L1830 397M1831 398L1832 399L1831 398M1833 399L1834 400L1833 399M1834 400L1835 401L1834 400M1836 401L1837 402L1836 401M1837 402L1838 403L1837 402M1838 403L1839 404L1838 403M1840 404L1841 405L1840 404M1841 405L1842 406L1841 405M1844 407L1845 408L1844 407M1845 408L1846 409L1845 408M1848 410L1849 411L1848 410M1849 411L1850 412L1849 411M1852 413L1853 414L1852 413M1853 414L1854 415L1853 414M1854 415L1855 416L1854 415M1856 416L1857 417L1856 416M1857 417L1858 418L1857 417M1858 418L1859 419L1858 418M1860 419L1861 420L1860 419M1861 420L1862 421L1861 420M1862 421L1863 422L1862 421M1863 422L1864 423L1863 422M1865 423L1866 424L1865 423M1866 424L1867 425L1866 424M1867 425L1868 426L1867 425M1868 426L1869 427L1868 426M1870 427L1871 428L1870 427M1871 428L1872 429L1871 428M1872 429L1873 430L1872 429M1873 430L1874 431L1873 430M1875 431L1876 432L1875 431M1876 432L1877 433L1876 432M1877 433L1878 434L1877 433M1878 434L1879 435L1878 434M1879 435L1880 436L1879 435M1881 436L1882 437L1881 436M1882 437L1883 438L1882 437M1883 438L1884 439L1883 438M1884 439L1885 440L1884 439M1885 440L1886 441L1885 440M1886 441L1887 442L1886 441M1889 443L1890 444L1889 443M1890 444L1891 445L1890 444M1891 445L1892 446L1891 445M1892 446L1893 447L1892 446M1893 447L1894 448L1893 447M1894 448L1895 449L1894 448M1897 450L1898 451L1897 450M1898 451L1899 452L1898 451M1899 452L1900 453L1899 452M1900 453L1901 454L1900 453M1901 454L1902 455L1901 454M1902 455L1903 456L1902 455M1903 456L1904 457L1903 456M1904 457L1905 458L1904 457M1907 459L1908 460L1907 459M1908 460L1909 461L1908 460M1909 461L1910 462L1909 461M1910 462L1911 463L1910 462M1911 463L1912 464L1911 463M1912 464L1913 465L1912 464M1913 465L1914 466L1913 465M1914 466L1915 467L1914 466M1917 468L1918 469L1917 468M1918 469L1919 470L1918 469M1919 470L1920 471L1919 470M1920 471L1921 472L1920 471M1921 472L1922 473L1921 472M1922 473L1923 474L1922 473M1923 474L1924 475L1923 474M1924 475L1925 476L1924 475M1925 476L1926 477L1925 476M1926 477L1927 478L1926 477M1927 478L1928 479L1927 478M1931 481L1932 482L1931 481M1932 482L1933 483L1932 482M1934 484L1935 485L1934 484M1935 485L1936 486L1935 485M1936 486L1937 487L1936 486M1937 487L1938 488L1937 487M1938 488L1939 489L1938 488M1939 489L1940 490L1939 489M1940 490L1941 491L1940 490M1941 491L1942 492L1941 491M1942 492L1943 493L1942 492M1943 493L1944 494L1943 493M1944 494L1945 495L1944 494M1945 495L1946 496L1945 495M1946 496L1947 497L1946 496M1947 497L1948 498L1947 497M1948 498L1949 499L1948 498M1949 499L1950 500L1949 499M1950 500L1951 501L1950 500M1951 501L1952 502L1951 501M1952 502L1953 503L1952 502M1953 503L1954 504L1953 503M1954 504L1955 505L1954 504M1955 505L1956 506L1955 505M1956 506L1957 507L1956 506M1957 507L1958 508L1957 507M1958 508L1959 509L1958 508M1959 509L1960 510L1959 509M1960 510L1961 511L1960 510M1961 511L1962 512L1961 511M1962 512L1963 513L1962 512M1963 513L1964 514L1963 513M1964 514L1965 515L1964 514M1965 515L1966 516L1965 515M1966 516L1967 517L1966 516M1967 517L1968 518L1967 517M1968 518L1969 519L1968 518M1972 523L1973 524L1972 523M1973 524L1974 525L1973 524M1974 525L1975 526L1974 525M1975 526L1976 527L1975 526M1976 527L1977 528L1976 527M1977 528L1978 529L1977 528M1978 529L1979 530L1978 529M1979 530L1980 531L1979 530M1980 531L1981 532L1980 531M1981 532L1982 533L1981 532M1984 536L1985 537L1984 536M1985 537L1986 538L1985 537M1986 538L1987 539L1986 538M1987 539L1988 540L1987 539M1988 540L1989 541L1988 540M1989 541L1990 542L1989 541M1990 542L1991 543L1990 542M1993 546L1994 547L1993 546M1994 547L1995 548L1994 547M1995 548L1996 549L1995 548M1996 549L1997 550L1996 549M1997 550L1998 551L1997 550M1998 551L1999 552L1998 551M2000 554L2001 555L2000 554M2001 555L2002 556L2001 555M2002 556L2003 557L2002 556M2003 557L2004 558L2003 557M2004 558L2005 559L2004 558M2005 560L2006 561L2005 560M2006 561L2007 562L2006 561M2007 562L2008 563L2007 562M2008 563L2009 564L2008 563M2009 564L2010 565L2009 564M2010 565L2011 566L2010 565M2011 567L2012 568L2011 567M2012 568L2013 569L2012 568M2013 569L2014 570L2013 569M2014 570L2015 571L2014 570M2015 571L2016 572L2015 571M2016 573L2017 574L2016 573M2017 574L2018 575L2017 574M2018 575L2019 576L2018 575M2019 576L2020 577L2019 576M2020 578L2021 579L2020 578M2021 579L2022 580L2021 579M2022 580L2023 581L2022 580M2024 583L2025 584L2024 583M2025 584L2026 585L2025 584M2026 585L2027 586L2026 585M2028 588L2029 589L2028 588M2029 589L2030 590L2029 589M2030 590L2031 591L2030 590M2031 592L2032 593L2031 592M2032 593L2033 594L2032 593M2033 594L2034 595L2033 594M2035 597L2036 598L2035 597M2036 598L2037 599L2036 598M2037 599L2038 600L2037 599M2038 601L2039 602L2038 601M2039 602L2040 603L2039 602M2040 603L2041 604L2040 603M2041 605L2042 606L2041 605M2042 606L2043 607L2042 606M2043 607L2044 608L2043 607M2044 609L2045 610L2044 609M2045 610L2046 611L2045 610M2046 611L2047 612L2046 611M2047 613L2048 614L2047 613M2048 614L2049 615L2048 614M2050 617L2051 618L2050 617M2051 618L2052 619L2051 618M2052 620L2053 621L2052 620M2053 621L2054 622L2053 621M2054 622L2055 623L2054 622M2055 624L2056 625L2055 624M2056 625L2057 626L2056 625M2057 626L2058 627L2057 626M2058 628L2059 629L2058 628M2059 629L2060 630L2059 629M2060 630L2061 631L2060 630M2061 632L2062 633L2061 632M2062 633L2063 634L2062 633M2063 635L2064 636L2063 635M2064 636L2065 637L2064 636M2065 637L2066 638L2065 637M2066 639L2067 640L2066 639M2067 640L2068 641L2067 640M2068 641L2069 642L2068 641M2069 643L2070 644L2069 643M2070 644L2071 645L2070 644M2072 647L2073 648L2072 647M2073 648L2074 649L2073 648M2074 649L2075 650L2074 649M2075 651L2076 652L2075 651M2076 652L2077 653L2076 652M2078 655L2079 656L2078 655M2079 656L2080 657L2079 656M2081 659L2082 660L2081 659M2082 660L2083 661L2082 660M2083 661L2084 662L2083 661M2084 663L2085 664L2084 663M2085 664L2086 665L2085 664M2086 665L2087 666L2086 665M2087 667L2088 668L2087 667M2088 668L2089 669L2088 668M2089 669L2090 670L2089 669M2090 671L2091 672L2090 671M2091 672L2092 673L2091 672M2092 673L2093 674L2092 673M2093 675L2094 676L2093 675M2094 676L2095 677L2094 676M2095 677L2096 678L2095 677M2096 679L2097 680L2096 679M2097 680L2098 681L2097 680M2099 683L2100 684L2099 683M2100 684L2101 685L2100 684M2101 685L2102 686L2101 685M2102 687L2103 688L2102 687M2103 688L2104 689L2103 688M2104 689L2105 690L2104 689M2105 690L2106 691L2105 690M2106 692L2107 693L2106 692M2107 693L2108 694L2107 693M2110 697L2111 698L2110 697M2111 698L2112 699L2111 698M2113 701L2114 702L2113 701M2114 702L2115 703L2114 702M2116 705L2117 706L2116 705M2117 706L2118 707L2117 706M2118 707L2119 708L2118 707M2120 710L2121 711L2120 710M2121 711L2122 712L2121 711M2122 712L2123 713L2122 712M2124 715L2125 716L2124 715M2125 716L2126 717L2125 716M2126 717L2127 718L2126 717M2128 720L2129 721L2128 720M2129 721L2130 722L2129 721M2130 722L2131 723L2130 722M2131 724L2132 725L2131 724M2132 725L2133 726L2132 725M2133 726L2134 727L2133 726M2135 729L2136 730L2135 729M2136 730L2137 731L2136 730M2137 731L2138 732L2137 731M2138 733L2139 734L2138 733M2139 734L2140 735L2139 734M2141 737L2142 738L2141 737M2142 738L2143 739L2142 738M2143 739L2144 740L2143 739M2144 741L2145 742L2144 741M2145 742L2146 743L2145 742M2146 743L2147 744L2146 743z"/>
<path style="fill:#46847b; stroke:none;" d="M238 744L238 745L252 745L238 744M255 744L255 745L258 745L255 744M224 745L224 746L231 746L224 745z"/>
<path style="fill:#5db1a7; stroke:none;" d="M0 1640L1020 1640C1011.63 1610.95 992.687 1582.07 979.248 1555C952.596 1501.32 925.881 1447.71 897.309 1395C830.256 1271.31 758.339 1150.01 672.884 1038C619.213 967.651 559.677 900.157 490 845.211C399.276 773.668 276.516 714.817 161 761.604C142.984 768.901 125.664 778.359 110 789.884C84.6892 808.507 62.7506 830.862 43.8951 856C32.8858 870.678 23.2689 886.2 13.9892 902C9.33128 909.931 2.91586 919.064 0.498457 928C-4.24859 945.548 0 969.794 0 988L0 1117L0 1640z"/>
<path style="fill:#46847b; stroke:none;" d="M232.667 745.333L233.333 745.667L232.667 745.333M264.667 745.333L265.333 745.667L264.667 745.333M267 745L267 746L274 746L267 745z"/>
<path style="fill:#f9f25a; stroke:none;" d="M2147 745L2148 746L2147 745z"/>
<path style="fill:#46847b; stroke:none;" d="M216 746L216 747L221 747L216 746M276 746L276 747L281 747L276 746z"/>
<path style="fill:#f9f25a; stroke:none;" d="M2148 746L2149 747L2148 746z"/>
<path style="fill:#46847b; stroke:none;" d="M210 747L210 748L213 748L210 747M285 747L285 748L289 748L285 747z"/>
<path style="fill:#f9f25a; stroke:none;" d="M2149 747L2150 748L2149 747z"/>
<path style="fill:#46847b; stroke:none;" d="M205 748L205 749L208 749L205 748M290 748L290 749L294 749L290 748M200 749L200 750L203 750L200 749M298.667 749.333L299.333 749.667L298.667 749.333z"/>
<path style="fill:#f9f25a; stroke:none;" d="M2150 749L2151 750L2150 749z"/>
<path style="fill:#46847b; stroke:none;" d="M195.667 750.333L196.333 750.667L195.667 750.333M303.667 750.333L304.333 750.667L303.667 750.333z"/>
<path style="fill:#f9f25a; stroke:none;" d="M2151 750L2152 751L2151 750z"/>
<path style="fill:#46847b; stroke:none;" d="M191.667 751.333L192.333 751.667L191.667 751.333M307.667 751.333L308.333 751.667L307.667 751.333z"/>
<path style="fill:#f9f25a; stroke:none;" d="M2152 751L2153 752L2152 751z"/>
<path style="fill:#46847b; stroke:none;" d="M187.667 752.333L188.333 752.667L187.667 752.333M312.667 752.333L313.333 752.667L312.667 752.333M184.667 753.333L185.333 753.667L184.667 753.333z"/>
<path style="fill:#f9f25a; stroke:none;" d="M2153 753L2154 754L2153 753z"/>
<path style="fill:#46847b; stroke:none;" d="M180 754L181 755L180 754M320 754L321 755L320 754z"/>
<path style="fill:#f9f25a; stroke:none;" d="M2154 754L2155 755L2154 754z"/>
<path style="fill:#46847b; stroke:none;" d="M177.667 755.333L178.333 755.667L177.667 755.333M324 755L325 756L324 755z"/>
<path style="fill:#f9f25a; stroke:none;" d="M2155 755L2156 756L2155 755z"/>
<path style="fill:#46847b; stroke:none;" d="M174.667 756.333L175.333 756.667L174.667 756.333M327.667 756.333L328.333 756.667L327.667 756.333M171.667 757.333L172.333 757.667L171.667 757.333M330.667 757.333L331.333 757.667L330.667 757.333M169 758L170 759L169 758M334 758L335 759L334 758z"/>
<path style="fill:#f9f25a; stroke:none;" d="M2157 758L2158 759L2157 758z"/>
<path style="fill:#46847b; stroke:none;" d="M166 759L167 760L166 759M337 759L338 760L337 759z"/>
<path style="fill:#f9f25a; stroke:none;" d="M2158 759L2159 760L2158 759z"/>
<path style="fill:#46847b; stroke:none;" d="M163 760L164 761L163 760M340.667 760.333L341.333 760.667L340.667 760.333M161 761L162 762L161 761M343.667 761.333L344.333 761.667L343.667 761.333M345.667 762.333L346.333 762.667L345.667 762.333z"/>
<path style="fill:#f9f25a; stroke:none;" d="M2160 762L2161 763L2160 762z"/>
<path style="fill:#46847b; stroke:none;" d="M156 763L157 764L156 763M348.667 763.333L349.333 763.667L348.667 763.333z"/>
<path style="fill:#f9f25a; stroke:none;" d="M2161 763L2162 764L2161 763z"/>
<path style="fill:#46847b; stroke:none;" d="M154 764L155 765L154 764M351.667 764.333L352.333 764.667L351.667 764.333M152 765L153 766L152 765M354 765L355 766L354 765M357 766L358 767L357 766z"/>
<path style="fill:#f9f25a; stroke:none;" d="M2163 766L2164 767L2163 766z"/>
<path style="fill:#46847b; stroke:none;" d="M147 767L148 768L147 767M359 767L360 768L359 767z"/>
<path style="fill:#f9f25a; stroke:none;" d="M2164 767L2165 768L2164 767z"/>
<path style="fill:#46847b; stroke:none;" d="M145 768L146 769L145 768M362 768L363 769L362 768M143 769L144 770L143 769M364 769L365 770L364 769M141 770L142 771L141 770M367 770L368 771L367 770z"/>
<path style="fill:#f9f25a; stroke:none;" d="M2166 770L2167 771L2166 770z"/>
<path style="fill:#46847b; stroke:none;" d="M139 771L140 772L139 771M369 771L370 772L369 771z"/>
<path style="fill:#f9f25a; stroke:none;" d="M2167 771L2168 772L2167 771M2168 772L2169 773L2168 772z"/>
<path style="fill:#46847b; stroke:none;" d="M374 773L375 774L374 773M134 774L135 775L134 774M376 774L377 775L376 774z"/>
<path style="fill:#f9f25a; stroke:none;" d="M2169 774L2170 775L2169 774z"/>
<path style="fill:#46847b; stroke:none;" d="M132 775L133 776L132 775M378 775L379 776L378 775z"/>
<path style="fill:#f9f25a; stroke:none;" d="M2170 775L2171 776L2170 775z"/>
<path style="fill:#46847b; stroke:none;" d="M130 776L131 777L130 776M380 776L381 777L380 776z"/>
<path style="fill:#f9f25a; stroke:none;" d="M2171 776L2172 777L2171 776z"/>
<path style="fill:#46847b; stroke:none;" d="M128 777L129 778L128 777M382 777L383 778L382 777M384.667 778.333L385.333 778.667L384.667 778.333M125 779L126 780L125 779M386.667 779.333L387.333 779.667L386.667 779.333z"/>
<path style="fill:#f9f25a; stroke:none;" d="M2173 779L2174 780L2173 779z"/>
<path style="fill:#46847b; stroke:none;" d="M124 780L125 781L124 780M388.667 780.333L389.333 780.667L388.667 780.333z"/>
<path style="fill:#f9f25a; stroke:none;" d="M2174 780L2175 781L2174 780z"/>
<path style="fill:#46847b; stroke:none;" d="M122 781L123 782L122 781M390.667 781.333L391.333 781.667L390.667 781.333z"/>
<path style="fill:#f9f25a; stroke:none;" d="M2175 781L2176 782L2175 781z"/>
<path style="fill:#46847b; stroke:none;" d="M121 782L122 783L121 782M393 782L394 783L393 782M119 783L120 784L119 783M395 783L396 784L395 783z"/>
<path style="fill:#f9f25a; stroke:none;" d="M2176 783L2177 784L2176 783M2177 784L2178 785L2177 784z"/>
<path style="fill:#46847b; stroke:none;" d="M116 785L117 786L116 785z"/>
<path style="fill:#f9f25a; stroke:none;" d="M2178 785L2179 786L2178 785z"/>
<path style="fill:#46847b; stroke:none;" d="M113 787L114 788L113 787M402 787L403 788L402 787z"/>
<path style="fill:#f9f25a; stroke:none;" d="M2179 787L2180 788L2179 787z"/>
<path style="fill:#46847b; stroke:none;" d="M404 788L405 789L404 788z"/>
<path style="fill:#f9f25a; stroke:none;" d="M2180 788L2181 789L2180 788z"/>
<path style="fill:#46847b; stroke:none;" d="M110 789L111 790L110 789M406 789L407 790L406 789z"/>
<path style="fill:#f9f25a; stroke:none;" d="M2181 789L2182 790L2181 789z"/>
<path style="fill:#46847b; stroke:none;" d="M109 790L110 791L109 790M408 790L409 791L408 790M410 791L411 792L410 791M106 792L107 793L106 792z"/>
<path style="fill:#f9f25a; stroke:none;" d="M2183 792L2184 793L2183 792z"/>
<path style="fill:#46847b; stroke:none;" d="M105 793L106 794L105 793z"/>
<path style="fill:#f9f25a; stroke:none;" d="M2184 793L2185 794L2184 793z"/>
<path style="fill:#46847b; stroke:none;" d="M415 794L416 795L415 794M417 795L418 796L417 795M101 796L102 797L101 796z"/>
<path style="fill:#f9f25a; stroke:none;" d="M2186 796L2187 797L2186 796z"/>
<path style="fill:#46847b; stroke:none;" d="M420 797L421 798L420 797z"/>
<path style="fill:#f9f25a; stroke:none;" d="M2187 797L2188 798L2187 797z"/>
<path style="fill:#46847b; stroke:none;" d="M422 798L423 799L422 798z"/>
<path style="fill:#f9f25a; stroke:none;" d="M2188 798L2189 799L2188 798z"/>
<path style="fill:#46847b; stroke:none;" d="M97 799L98 800L97 799M96 800L97 801L96 800M425 800L426 801L425 800z"/>
<path style="fill:#f9f25a; stroke:none;" d="M2189 800L2190 801L2189 800z"/>
<path style="fill:#46847b; stroke:none;" d="M427 801L428 802L427 801z"/>
<path style="fill:#f9f25a; stroke:none;" d="M2190 801L2191 802L2190 801M2191 802L2192 803L2191 802z"/>
<path style="fill:#46847b; stroke:none;" d="M92 803L93 804L92 803M430 803L431 804L430 803M91 804L92 805L91 804M432 804L433 805L432 804z"/>
<path style="fill:#f9f25a; stroke:none;" d="M2192 804L2193 805L2192 804z"/>
<path style="fill:#46847b; stroke:none;" d="M90 805L91 806L90 805z"/>
<path style="fill:#f9f25a; stroke:none;" d="M2193 805L2194 806L2193 805z"/>
<path style="fill:#46847b; stroke:none;" d="M435 806L436 807L435 806z"/>
<path style="fill:#f9f25a; stroke:none;" d="M2194 806L2195 807L2194 806z"/>
<path style="fill:#46847b; stroke:none;" d="M438 808L439 809L438 808z"/>
<path style="fill:#f9f25a; stroke:none;" d="M2195 808L2196 809L2195 808z"/>
<path style="fill:#46847b; stroke:none;" d="M440 809L441 810L440 809z"/>
<path style="fill:#f9f25a; stroke:none;" d="M2196 809L2197 810L2196 809z"/>
<path style="fill:#46847b; stroke:none;" d="M441 810L442 811L441 810z"/>
<path style="fill:#f9f25a; stroke:none;" d="M2197 810L2198 811L2197 810z"/>
<path style="fill:#46847b; stroke:none;" d="M443 811L444 812L443 811M446 813L447 814L446 813z"/>
<path style="fill:#f9f25a; stroke:none;" d="M2199 813L2200 814L2199 813M2200 814L2201 815L2200 814z"/>
<path style="fill:#46847b; stroke:none;" d="M79 815L80 816L79 815M449 815L450 816L449 815z"/>
<path style="fill:#f9f25a; stroke:none;" d="M2201 815L2202 816L2201 815z"/>
<path style="fill:#46847b; stroke:none;" d="M78 816L79 817L78 816M77 817L78 818L77 817M452 817L453 818L452 817z"/>
<path style="fill:#f9f25a; stroke:none;" d="M2202 817L2203 818L2202 817z"/>
<path style="fill:#46847b; stroke:none;" d="M76 818L77 819L76 818M453 818L454 819L453 818z"/>
<path style="fill:#f9f25a; stroke:none;" d="M2203 818L2204 819L2203 818z"/>
<path style="fill:#46847b; stroke:none;" d="M75 819L76 820L75 819M455 819L456 820L455 819z"/>
<path style="fill:#f9f25a; stroke:none;" d="M2204 819L2205 820L2204 819z"/>
<path style="fill:#46847b; stroke:none;" d="M74 820L75 821L74 820M456 820L457 821L456 820z"/>
<path style="fill:#f9f25a; stroke:none;" d="M2205 820L2206 821L2205 820z"/>
<path style="fill:#46847b; stroke:none;" d="M73 821L74 822L73 821M457 821L458 822L457 821M72 822L73 823L72 822M459 822L460 823L459 822z"/>
<path style="fill:#f9f25a; stroke:none;" d="M2206 822L2207 823L2206 822z"/>
<path style="fill:#46847b; stroke:none;" d="M71 823L72 824L71 823M460 823L461 824L460 823z"/>
<path style="fill:#f9f25a; stroke:none;" d="M2207 823L2208 824L2207 823z"/>
<path style="fill:#46847b; stroke:none;" d="M462 824L463 825L462 824z"/>
<path style="fill:#f9f25a; stroke:none;" d="M2208 824L2209 825L2208 824z"/>
<path style="fill:#46847b; stroke:none;" d="M463 825L464 826L463 825M466 827L467 828L466 827z"/>
<path style="fill:#f9f25a; stroke:none;" d="M2210 827L2211 828L2210 827z"/>
<path style="fill:#46847b; stroke:none;" d="M467 828L468 829L467 828z"/>
<path style="fill:#f9f25a; stroke:none;" d="M2211 828L2212 829L2211 828z"/>
<path style="fill:#46847b; stroke:none;" d="M469 829L470 830L469 829z"/>
<path style="fill:#f9f25a; stroke:none;" d="M2212 829L2213 830L2212 829z"/>
<path style="fill:#46847b; stroke:none;" d="M470 830L471 831L470 830M63 832L64 833L63 832M473 832L474 833L473 832z"/>
<path style="fill:#f9f25a; stroke:none;" d="M2214 832L2215 833L2214 832z"/>
<path style="fill:#46847b; stroke:none;" d="M62 833L63 834L62 833M474 833L475 834L474 833z"/>
<path style="fill:#f9f25a; stroke:none;" d="M2215 833L2216 834L2215 833z"/>
<path style="fill:#46847b; stroke:none;" d="M61 834L62 835L61 834z"/>
<path style="fill:#f9f25a; stroke:none;" d="M2216 834L2217 835L2216 834z"/>
<path style="fill:#46847b; stroke:none;" d="M60 835L61 836L60 835M477 835L478 836L477 835M478 836L479 837L478 836z"/>
<path style="fill:#f9f25a; stroke:none;" d="M2218 837L2219 838L2218 837z"/>
<path style="fill:#46847b; stroke:none;" d="M481 838L482 839L481 838z"/>
<path style="fill:#f9f25a; stroke:none;" d="M2219 838L2220 839L2219 838z"/>
<path style="fill:#46847b; stroke:none;" d="M57 839L58 840L57 839M482 839L483 840L482 839M56 840L57 841L56 840M483 840L484 841L483 840M55 841L56 842L55 841z"/>
<path style="fill:#f9f25a; stroke:none;" d="M2221 841L2222 842L2221 841z"/>
<path style="fill:#46847b; stroke:none;" d="M486 842L487 843L486 842z"/>
<path style="fill:#f9f25a; stroke:none;" d="M2222 842L2223 843L2222 842z"/>
<path style="fill:#46847b; stroke:none;" d="M487 843L488 844L487 843z"/>
<path style="fill:#f9f25a; stroke:none;" d="M2223 843L2224 844L2223 843z"/>
<path style="fill:#46847b; stroke:none;" d="M52 845L53 846L52 845M51 846L52 847L51 846M491 846L492 847L491 846z"/>
<path style="fill:#f9f25a; stroke:none;" d="M2225 846L2226 847L2225 846z"/>
<path style="fill:#46847b; stroke:none;" d="M50 847L51 848L50 847M492 847L493 848L492 847z"/>
<path style="fill:#f9f25a; stroke:none;" d="M2226 847L2227 848L2226 847M2227 848L2228 849L2227 848z"/>
<path style="fill:#46847b; stroke:none;" d="M48 850L49 851L48 850M496 850L497 851L496 850M47 851L48 852L47 851M497 851L498 852L497 851z"/>
<path style="fill:#f9f25a; stroke:none;" d="M2229 851L2230 852L2229 851z"/>
<path style="fill:#46847b; stroke:none;" d="M498 852L499 853L498 852z"/>
<path style="fill:#f9f25a; stroke:none;" d="M2230 852L2231 853L2230 852M2231 853L2232 854L2231 853z"/>
<path style="fill:#46847b; stroke:none;" d="M501 854L502 855L501 854M44 855L45 856L44 855M502 855L503 856L502 855z"/>
<path style="fill:#f9f25a; stroke:none;" d="M2232 855L2233 856L2232 855z"/>
<path style="fill:#46847b; stroke:none;" d="M43 856L44 857L43 856M503 856L504 857L503 856z"/>
<path style="fill:#f9f25a; stroke:none;" d="M2233 856L2234 857L2233 856M2234 857L2235 858L2234 857z"/>
<path style="fill:#46847b; stroke:none;" d="M41 859L42 860L41 859M507 859L508 860L507 859M508 860L509 861L508 860z"/>
<path style="fill:#f9f25a; stroke:none;" d="M2236 860L2237 861L2236 860z"/>
<path style="fill:#46847b; stroke:none;" d="M509 861L510 862L509 861z"/>
<path style="fill:#f9f25a; stroke:none;" d="M2237 861L2238 862L2237 861z"/>
<path style="fill:#46847b; stroke:none;" d="M39 862L40 863L39 862M510 862L511 863L510 862z"/>
<path style="fill:#f9f25a; stroke:none;" d="M2238 862L2239 863L2238 862z"/>
<path style="fill:#46847b; stroke:none;" d="M38 863L39 864L38 863M514 865L515 866L514 865z"/>
<path style="fill:#f9f25a; stroke:none;" d="M2240 865L2241 866L2240 865z"/>
<path style="fill:#46847b; stroke:none;" d="M36 866L37 867L36 866M515 866L516 867L515 866z"/>
<path style="fill:#f9f25a; stroke:none;" d="M2241 866L2242 867L2241 866z"/>
<path style="fill:#46847b; stroke:none;" d="M516 867L517 868L516 867z"/>
<path style="fill:#f9f25a; stroke:none;" d="M2242 867L2243 868L2242 867z"/>
<path style="fill:#46847b; stroke:none;" d="M517 868L518 869L517 868M34 869L35 870L34 869z"/>
<path style="fill:#f9f25a; stroke:none;" d="M2244 870L2245 871L2244 870M2245 871L2246 872L2245 871z"/>
<path style="fill:#46847b; stroke:none;" d="M32 872L33 873L32 872M522 872L523 873L522 872z"/>
<path style="fill:#f9f25a; stroke:none;" d="M2246 872L2247 873L2246 872z"/>
<path style="fill:#46847b; stroke:none;" d="M31 873L32 874L31 873M523 873L524 874L523 873z"/>
<path style="fill:#f9f25a; stroke:none;" d="M2247 873L2248 874L2247 873z"/>
<path style="fill:#46847b; stroke:none;" d="M524 874L525 875L524 874M525 875L526 876L525 875z"/>
<path style="fill:#f9f25a; stroke:none;" d="M2248 875L2249 876L2248 875z"/>
<path style="fill:#46847b; stroke:none;" d="M29 876L30 877L29 876z"/>
<path style="fill:#f9f25a; stroke:none;" d="M2249 876L2250 877L2249 876M2250 877L2251 878L2250 877z"/>
<path style="fill:#46847b; stroke:none;" d="M28 878L29 879L28 878z"/>
<path style="fill:#f9f25a; stroke:none;" d="M2251 878L2252 879L2251 878z"/>
<path style="fill:#46847b; stroke:none;" d="M26 881L27 882L26 881M532 881L533 882L532 881z"/>
<path style="fill:#f9f25a; stroke:none;" d="M2253 881L2254 882L2253 881z"/>
<path style="fill:#46847b; stroke:none;" d="M533 882L534 883L533 882z"/>
<path style="fill:#f9f25a; stroke:none;" d="M2254 882L2255 883L2254 882z"/>
<path style="fill:#46847b; stroke:none;" d="M534 883L535 884L534 883z"/>
<path style="fill:#f9f25a; stroke:none;" d="M2255 883L2256 884L2255 883z"/>
<path style="fill:#46847b; stroke:none;" d="M24 884L25 885L24 884M535 884L536 885L535 884z"/>
<path style="fill:#f9f25a; stroke:none;" d="M2256 884L2257 885L2256 884z"/>
<path style="fill:#46847b; stroke:none;" d="M536 885L537 886L536 885M537 886L538 887L537 886z"/>
<path style="fill:#f9f25a; stroke:none;" d="M2257 886L2258 887L2257 886z"/>
<path style="fill:#46847b; stroke:none;" d="M22 887L23 888L22 887z"/>
<path style="fill:#f9f25a; stroke:none;" d="M2258 887L2259 888L2258 887M2259 888L2260 889L2259 888z"/>
<path style="fill:#46847b; stroke:none;" d="M21 889L22 890L21 889z"/>
<path style="fill:#f9f25a; stroke:none;" d="M2260 889L2261 890L2260 889z"/>
<path style="fill:#46847b; stroke:none;" d="M19 892L20 893L19 892z"/>
<path style="fill:#f9f25a; stroke:none;" d="M2262 892L2263 893L2262 892M2263 893L2264 894L2263 893z"/>
<path style="fill:#46847b; stroke:none;" d="M18 894L19 895L18 894z"/>
<path style="fill:#f9f25a; stroke:none;" d="M2264 894L2265 895L2264 894z"/>
<path style="fill:#46847b; stroke:none;" d="M16 897L17 898L16 897M549 897L550 898L549 897z"/>
<path style="fill:#f9f25a; stroke:none;" d="M2266 897L2267 898L2266 897z"/>
<path style="fill:#46847b; stroke:none;" d="M550 898L551 899L550 898z"/>
<path style="fill:#f9f25a; stroke:none;" d="M2267 898L2268 899L2267 898z"/>
<path style="fill:#46847b; stroke:none;" d="M15 899L16 900L15 899M551 899L552 900L551 899z"/>
<path style="fill:#f9f25a; stroke:none;" d="M2268 899L2269 900L2268 899z"/>
<path style="fill:#46847b; stroke:none;" d="M552 900L553 901L552 900M14 901L15 902L14 901M553 901L554 902L553 901M554 902L555 903L554 902z"/>
<path style="fill:#f9f25a; stroke:none;" d="M2270 902L2271 903L2270 902z"/>
<path style="fill:#46847b; stroke:none;" d="M555 903L556 904L555 903z"/>
<path style="fill:#f9f25a; stroke:none;" d="M2271 903L2272 904L2271 903z"/>
<path style="fill:#46847b; stroke:none;" d="M12 904L13 905L12 904M556 904L557 905L556 904z"/>
<path style="fill:#f9f25a; stroke:none;" d="M2272 904L2273 905L2272 904z"/>
<path style="fill:#46847b; stroke:none;" d="M557 905L558 906L557 905z"/>
<path style="fill:#f9f25a; stroke:none;" d="M2273 905L2274 906L2273 905z"/>
<path style="fill:#46847b; stroke:none;" d="M11 906L12 907L11 906M558 906L559 907L558 906M559 907L560 908L559 907z"/>
<path style="fill:#f9f25a; stroke:none;" d="M2274 907L2275 908L2274 907z"/>
<path style="fill:#46847b; stroke:none;" d="M560 908L561 909L560 908z"/>
<path style="fill:#f9f25a; stroke:none;" d="M2275 908L2276 909L2275 908z"/>
<path style="fill:#46847b; stroke:none;" d="M561 909L562 910L561 909z"/>
<path style="fill:#f9f25a; stroke:none;" d="M2276 909L2277 910L2276 909z"/>
<path style="fill:#46847b; stroke:none;" d="M562 910L563 911L562 910z"/>
<path style="fill:#f9f25a; stroke:none;" d="M2277 910L2278 911L2277 910z"/>
<path style="fill:#46847b; stroke:none;" d="M563 911L564 912L563 911M564 912L565 913L564 912M565 913L566 914L565 913z"/>
<path style="fill:#f9f25a; stroke:none;" d="M2279 913L2280 914L2279 913z"/>
<path style="fill:#46847b; stroke:none;" d="M566 914L567 915L566 914z"/>
<path style="fill:#f9f25a; stroke:none;" d="M2280 914L2281 915L2280 914z"/>
<path style="fill:#46847b; stroke:none;" d="M6 915L7 916L6 915M567 915L568 916L567 915z"/>
<path style="fill:#f9f25a; stroke:none;" d="M2281 915L2282 916L2281 915z"/>
<path style="fill:#46847b; stroke:none;" d="M568 916L569 917L568 916M5 917L6 918L5 917M569 917L570 918L569 917M570 918L571 919L570 918z"/>
<path style="fill:#f9f25a; stroke:none;" d="M2283 918L2284 919L2283 918z"/>
<path style="fill:#46847b; stroke:none;" d="M4 919L5 920L4 919M571 919L572 920L571 919z"/>
<path style="fill:#f9f25a; stroke:none;" d="M2284 919L2285 920L2284 919z"/>
<path style="fill:#46847b; stroke:none;" d="M572 920L573 921L572 920z"/>
<path style="fill:#f9f25a; stroke:none;" d="M2285 920L2286 921L2285 920z"/>
<path style="fill:#46847b; stroke:none;" d="M3 921L4 922L3 921M573 921L574 922L573 921z"/>
<path style="fill:#f9f25a; stroke:none;" d="M2286 921L2287 922L2286 921z"/>
<path style="fill:#46847b; stroke:none;" d="M574 922L575 923L574 922M2 923L3 924L2 923M575 923L576 924L575 923M576 924L577 925L576 924z"/>
<path style="fill:#f9f25a; stroke:none;" d="M2288 924L2289 925L2288 924z"/>
<path style="fill:#46847b; stroke:none;" d="M1 925L2 926L1 925M577 925L578 926L577 925z"/>
<path style="fill:#f9f25a; stroke:none;" d="M2289 925L2290 926L2289 925z"/>
<path style="fill:#46847b; stroke:none;" d="M0 926L1 927L0 926z"/>
<path style="fill:#f9f25a; stroke:none;" d="M2290 926L2291 927L2290 926M2293 930L2294 931L2293 930M2294 931L2295 932L2294 931M2295 932L2296 933L2295 932M2296 933L2297 934L2296 933z"/>
<path style="fill:#46847b; stroke:none;" d="M585 934L586 935L585 934M586 935L587 936L586 935M587 936L588 937L587 936z"/>
<path style="fill:#f9f25a; stroke:none;" d="M2298 936L2299 937L2298 936z"/>
<path style="fill:#46847b; stroke:none;" d="M588 937L589 938L588 937z"/>
<path style="fill:#f9f25a; stroke:none;" d="M2299 937L2300 938L2299 937z"/>
<path style="fill:#46847b; stroke:none;" d="M589 938L590 939L589 938z"/>
<path style="fill:#f9f25a; stroke:none;" d="M2300 938L2301 939L2300 938z"/>
<path style="fill:#46847b; stroke:none;" d="M590 939L591 940L590 939z"/>
<path style="fill:#f9f25a; stroke:none;" d="M2301 939L2302 940L2301 939M2302 940L2303 941L2302 940M2304 943L2305 944L2304 943M2305 944L2306 945L2305 944M2306 945L2307 946L2306 945M2307 946L2308 947L2307 946z"/>
<path style="fill:#46847b; stroke:none;" d="M597 947L598 948L597 947M598 948L599 949L598 948M599 949L600 950L599 949M600 950L601 951L600 950z"/>
<path style="fill:#f9f25a; stroke:none;" d="M2310 950L2311 951L2310 950z"/>
<path style="fill:#46847b; stroke:none;" d="M601 951L602 952L601 951z"/>
<path style="fill:#f9f25a; stroke:none;" d="M2311 951L2312 952L2311 951z"/>
<path style="fill:#46847b; stroke:none;" d="M602 952L603 953L602 952z"/>
<path style="fill:#f9f25a; stroke:none;" d="M2312 952L2313 953L2312 952M2313 953L2314 954L2313 953z"/>
<path style="fill:#46847b; stroke:none;" d="M605 956L606 957L605 956M606 957L607 958L606 957z"/>
<path style="fill:#f9f25a; stroke:none;" d="M2316 957L2317 958L2316 957z"/>
<path style="fill:#46847b; stroke:none;" d="M607 958L608 959L607 958z"/>
<path style="fill:#f9f25a; stroke:none;" d="M2317 958L2318 959L2317 958z"/>
<path style="fill:#46847b; stroke:none;" d="M608 959L609 960L608 959z"/>
<path style="fill:#f9f25a; stroke:none;" d="M2318 959L2319 960L2318 959z"/>
<path style="fill:#46847b; stroke:none;" d="M609 960L610 961L609 960z"/>
<path style="fill:#f9f25a; stroke:none;" d="M2319 960L2320 961L2319 960M2320 961L2321 962L2320 961M2321 962L2322 963L2321 962z"/>
<path style="fill:#46847b; stroke:none;" d="M612 964L613 965L612 964M613 965L614 966L613 965M614 966L615 967L614 966z"/>
<path style="fill:#f9f25a; stroke:none;" d="M2324 966L2325 967L2324 966z"/>
<path style="fill:#46847b; stroke:none;" d="M615 967L616 968L615 967z"/>
<path style="fill:#f9f25a; stroke:none;" d="M2325 967L2326 968L2325 967z"/>
<path style="fill:#46847b; stroke:none;" d="M616 968L617 969L616 968z"/>
<path style="fill:#f9f25a; stroke:none;" d="M2326 968L2327 969L2326 968M2327 969L2328 970L2327 969M2328 970L2329 971L2328 970M2329 971L2330 972L2329 971M2330 972L2331 973L2330 972z"/>
<path style="fill:#46847b; stroke:none;" d="M620 973L621 974L620 973z"/>
<path style="fill:#f9f25a; stroke:none;" d="M2331 973L2332 974L2331 973z"/>
<path style="fill:#46847b; stroke:none;" d="M621 974L622 975L621 974M622 975L623 976L622 975z"/>
<path style="fill:#f9f25a; stroke:none;" d="M2335 978L2336 979L2335 978M2336 979L2337 980L2336 979z"/>
<path style="fill:#46847b; stroke:none;" d="M626 980L627 981L626 980z"/>
<path style="fill:#f9f25a; stroke:none;" d="M2337 980L2338 981L2337 980z"/>
<path style="fill:#46847b; stroke:none;" d="M627 981L628 982L627 981z"/>
<path style="fill:#f9f25a; stroke:none;" d="M2338 981L2339 982L2338 981z"/>
<path style="fill:#46847b; stroke:none;" d="M628 982L629 983L628 982z"/>
<path style="fill:#f9f25a; stroke:none;" d="M2339 982L2340 983L2339 982M2340 983L2341 984L2340 983M2341 984L2342 985L2341 984M2342 985L2343 986L2342 985z"/>
<path style="fill:#46847b; stroke:none;" d="M631 986L632 987L631 986z"/>
<path style="fill:#f9f25a; stroke:none;" d="M2343 986L2344 987L2343 986z"/>
<path style="fill:#46847b; stroke:none;" d="M632 987L633 988L632 987z"/>
<path style="fill:#f9f25a; stroke:none;" d="M2344 987L2345 988L2344 987z"/>
<path style="fill:#46847b; stroke:none;" d="M633 988L634 989L633 988z"/>
<path style="fill:#f9f25a; stroke:none;" d="M2345 988L2346 989L2345 988M2346 989L2347 990L2346 989M2347 990L2348 991L2347 990M2348 991L2349 992L2348 991z"/>
<path style="fill:#46847b; stroke:none;" d="M636 992L637 993L636 992z"/>
<path style="fill:#f9f25a; stroke:none;" d="M2349 992L2350 993L2349 992z"/>
<path style="fill:#46847b; stroke:none;" d="M637 993L638 994L637 993z"/>
<path style="fill:#f9f25a; stroke:none;" d="M2350 993L2351 994L2350 993z"/>
<path style="fill:#46847b; stroke:none;" d="M638 994L639 995L638 994M641 998L642 999L641 998z"/>
<path style="fill:#f9f25a; stroke:none;" d="M2359 998L2359 1002L2360 1002L2359 998z"/>
<path style="fill:#46847b; stroke:none;" d="M642 999L643 1000L642 999M645 1003L646 1004L645 1003M646 1004L647 1005L646 1004M647 1005L648 1006L647 1005M649 1008L650 1009L649 1008M650 1009L651 1010L650 1009M651 1010L652 1011L651 1010M653 1013L654 1014L653 1013M654 1014L655 1015L654 1014M655 1015L656 1016L655 1015M657 1018L658 1019L657 1018M658 1019L659 1020L658 1019M661 1023L662 1024L661 1023M662 1024L663 1025L662 1024M665 1028L666 1029L665 1028M666 1029L667 1030L666 1029M668 1032L669 1033L668 1032M669 1033L670 1034L669 1033M671 1036L672 1037L671 1036M672 1037L673 1038L672 1037M674 1040L675 1041L674 1040M675 1041L676 1042L675 1041M676 1042L677 1043L676 1042M678 1045L679 1046L678 1045M679 1046L680 1047L679 1046M681 1049L682 1050L681 1049M682 1050L683 1051L682 1050M685 1054L686 1055L685 1054M687 1057L688 1058L687 1057M688 1058L689 1059L688 1058M690 1061L691 1062L690 1061M691 1062L692 1063L691 1062M693 1065L694 1066L693 1065M695 1068L696 1069L695 1068M696 1069L697 1070L696 1069M698 1072L699 1073L698 1072M699 1073L700 1074L699 1073M701 1076L702 1077L701 1076M702 1077L703 1078L702 1077M704 1080L705 1081L704 1080M707 1084L708 1085L707 1084M708 1086L709 1087L708 1086M709 1087L710 1088L709 1087M711 1090L712 1091L711 1090M712 1091L713 1092L712 1091M713 1093L714 1094L713 1093M714 1094L715 1095L714 1094M716 1097L717 1098L716 1097M718 1100L719 1101L718 1100M719 1101L720 1102L719 1101M721 1104L722 1105L721 1104M723 1107L724 1108L723 1107M725 1110L726 1111L725 1110M727 1113L728 1114L727 1113M728 1114L729 1115L728 1114M729 1116L730 1117L729 1116M730 1117L731 1118L730 1117M731 1119L732 1120L731 1119M732 1120L733 1121L732 1120M734 1123L735 1124L734 1123M736 1126L737 1127L736 1126M739 1130L740 1131L739 1130M740 1132L741 1133L740 1132M741 1133L742 1134L741 1133M742 1135L743 1136L742 1135M744 1138L745 1139L744 1138M746 1141L747 1142L746 1141M748 1144L749 1145L748 1144M750 1147L751 1148L750 1147M752 1150L753 1151L752 1150M754 1153L755 1154L754 1153M756 1156L757 1157L756 1156M758 1159L759 1160L758 1159M760 1162L761 1163L760 1162M761 1164L762 1165L761 1164M762 1165L763 1166L762 1165M763 1167L764 1168L763 1167M764 1168L765 1169L764 1168M765 1170L766 1171L765 1170M766 1171L767 1172L766 1171M767 1173L768 1174L767 1173M769 1176L770 1177L769 1176M771 1179L772 1180L771 1179M773 1182L774 1183L773 1182M774 1184L775 1185L774 1184M775 1185L776 1186L775 1185M776 1187L777 1188L776 1187M777 1188L778 1189L777 1188M779 1191L780 1192L779 1191M780 1193L781 1194L780 1193M783 1198L784 1199L783 1198M785 1201L786 1202L785 1201M786 1203L787 1204L786 1203M788 1206L789 1207L788 1206M790 1209L791 1210L790 1209M792 1212L793 1213L792 1212M793 1214L794 1215L793 1214M794 1216L795 1217L794 1216M796 1219L797 1220L796 1219M797 1221L798 1222L797 1221M798 1222L799 1223L798 1222M799 1224L800 1225L799 1224M801 1227L802 1228L801 1227M802 1229L803 1230L802 1229M804 1232L805 1233L804 1232M806 1235L807 1236L806 1235M807 1237L808 1238L807 1237M808 1239L809 1240L808 1239M810 1242L811 1243L810 1242M812 1245L813 1246L812 1245M813 1247L814 1248L813 1247M815 1250L816 1251L815 1250M816 1252L817 1253L816 1252M818 1255L819 1256L818 1255M819 1257L820 1258L819 1257M821 1260L822 1261L821 1260M822 1262L823 1263L822 1262M824 1265L825 1266L824 1265M825 1267L826 1268L825 1267M827 1270L828 1271L827 1270M828 1272L829 1273L828 1272M829 1274L830 1275L829 1274M831 1277L832 1278L831 1277M832 1279L833 1280L832 1279M835 1284L836 1285L835 1284M836 1286L837 1287L836 1286M838 1289L839 1290L838 1289M839 1291L840 1292L839 1291M842 1296L843 1297L842 1296M843 1298L844 1299L843 1298M845 1301L846 1302L845 1301M846 1303L847 1304L846 1303M847 1305L848 1306L847 1305M848 1307L849 1308L848 1307M850 1310L851 1311L850 1310M851 1312L852 1313L851 1312M854 1317L855 1318L854 1317M855 1319L856 1320L855 1319M856 1321L857 1322L856 1321M858 1324L859 1325L858 1324M859 1326L860 1327L859 1326M860 1328L861 1329L860 1328M862 1331L863 1332L862 1331M863 1333L864 1334L863 1333M864 1335L865 1336L864 1335M865 1337L866 1338L865 1337M867 1340L868 1341L867 1340M868 1342L869 1343L868 1342M869 1344L870 1345L869 1344M871 1347L872 1348L871 1347M872 1349L873 1350L872 1349M875 1354L876 1355L875 1354M876 1356L877 1357L876 1356M877 1358L878 1359L877 1358M878 1360L879 1361L878 1360M882 1367L883 1368L882 1367M883 1369L884 1370L883 1369M884 1371L885 1372L884 1371M885 1373L886 1374L885 1373M889 1380L890 1381L889 1380M890 1382L891 1383L890 1382M891 1384L892 1385L891 1384M892 1386L893 1387L892 1386M895 1391L896 1392L895 1391M896 1393L897 1394L896 1393z"/>
<path style="fill:#5db1a7; stroke:none;" d="M2359 1394C2340.25 1406.4 2319.72 1415.64 2300 1426.31C2280.27 1436.98 2261.42 1449.32 2241 1458.69C2199.67 1477.67 2154.15 1488.53 2109 1492.83C2052.36 1498.22 1995.26 1487.95 1939 1484.09C1893.86 1481 1846.76 1481.48 1802 1488.42C1737.23 1498.47 1666.01 1528.55 1645.72 1597C1641.63 1610.8 1643 1625.78 1643 1640L2360 1640L2360 1467L2360 1417L2359 1394z"/>
<path style="fill:#46847b; stroke:none;" d="M897 1395L898 1396L897 1395M898 1397L899 1398L898 1397M902 1404L903 1405L902 1404M903 1406L904 1407L903 1406M904 1408L905 1409L904 1408M905 1410L906 1411L905 1410M911 1421L912 1422L911 1421M912 1423L913 1424L912 1423M913 1425L914 1426L913 1425M914 1427L915 1428L914 1427M915 1429L916 1430L915 1429M916 1431L917 1432L916 1431M917 1433L918 1434L917 1433M920 1438L921 1439L920 1438M921 1440L922 1441L921 1440M922 1442L923 1443L922 1442M923 1444L924 1445L923 1444M924 1446L925 1447L924 1446M925 1448L926 1449L925 1448M931 1459L932 1460L931 1459M932 1461L933 1462L932 1461M933 1463L934 1464L933 1463M934 1465L935 1466L934 1465M935 1467L936 1468L935 1467M936 1469L937 1470L936 1469M937 1471L938 1472L937 1471M938 1473L939 1474L938 1473M939 1475L940 1476L939 1475M940 1477L941 1478L940 1477M941 1479L942 1480L941 1479M942 1481L943 1482L942 1481M943 1483L944 1484L943 1483M944 1485L945 1486L944 1485M945 1487L946 1488L945 1487M948 1493L949 1494L948 1493M949 1495L950 1496L949 1495M950 1497L951 1498L950 1497M951 1499L952 1500L951 1499M955 1507L956 1508L955 1507M957 1511L958 1512L957 1511M960 1516L961 1517L960 1516M961 1518L962 1519L961 1518M966 1528L967 1529L966 1528M967 1530L968 1531L967 1530M968 1532L969 1533L968 1532M976 1549L977 1550L976 1549M977 1551L978 1552L977 1551M978 1553L979 1554L978 1553M979 1555L980 1556L979 1555M980 1557L981 1558L980 1557M981 1559L982 1560L981 1559M982 1561L983 1562L982 1561M983 1563L984 1564L983 1563M984 1565L985 1566L984 1565M985 1567L986 1568L985 1567M986 1569L987 1570L986 1569M987 1571L988 1572L987 1571M988 1573L989 1574L988 1573M989 1575L990 1576L989 1575M990 1577L991 1578L990 1577M991 1579L992 1580L991 1579M993 1583L994 1584L993 1583M995 1588L996 1589L995 1588M996 1590L997 1591L996 1590M997 1592L998 1593L997 1592M998 1594L999 1595L998 1594M1000 1598L1001 1599L1000 1598M1001 1600L1002 1601L1001 1600M1002 1602L1003 1603L1002 1602M1003 1604L1004 1605L1003 1604M1004 1606L1005 1607L1004 1606M1005 1608L1006 1609L1005 1608M1006 1610L1007 1611L1006 1610M1007 1612L1008 1613L1007 1612M1014 1627L1015 1628L1014 1627M1015 1629L1016 1630L1015 1629M1016 1631L1017 1632L1016 1631M1017 1633L1018 1634L1017 1633M1018 1635L1019 1636L1018 1635M1019 1637L1020 1638L1019 1637z"/>
</svg>
